<svg width="76" height="10" viewBox="0 0 76 10" fill="none" xmlns="http://www.w3.org/2000/svg">
<path d="M5.48864 9.13636C7.98153 9.13636 9.99716 7.12074 9.98864 4.63636C9.98011 2.15199 7.98153 0.136364 5.48864 0.136364C3.01278 0.136364 0.997159 2.15199 0.988636 4.63636C0.980114 7.12074 3.01278 9.13636 5.48864 9.13636ZM5.48864 8.14773C3.54972 8.14773 1.96875 6.56676 1.97727 4.64062C1.9858 2.7017 3.55824 1.125 5.48864 1.125C7.42756 1.125 8.99148 2.69318 9 4.64062C9.00852 6.57528 7.43608 8.14773 5.48864 8.14773ZM3 4.63636C3 6.03409 4.13352 7.16761 5.53125 7.16761C6.74148 7.16761 7.67045 6.31534 7.83239 5.18182H6.80114C6.68182 5.76562 6.1875 6.17898 5.53125 6.17898C4.67898 6.17898 3.98864 5.48864 3.98864 4.63636C3.98864 3.78409 4.67898 3.09375 5.53125 3.09375C6.1875 3.09375 6.77131 3.5071 6.88636 4.09091H7.91761C7.75568 2.95739 6.74148 2.10511 5.53125 2.10511C4.13352 2.10511 3 3.23864 3 4.63636ZM15.2589 9H20.7646V8.0625H16.7077V7.99432L18.668 5.89773C20.168 4.29119 20.6112 3.54119 20.6112 2.57386C20.6112 1.22727 19.5202 0.153409 17.9862 0.153409C16.4563 0.153409 15.293 1.19318 15.293 2.72727H16.2987C16.2987 1.73438 16.9421 1.07386 17.9521 1.07386C18.8981 1.07386 19.6225 1.65341 19.6225 2.57386C19.6225 3.37926 19.1495 3.97585 18.1396 5.07955L15.2589 8.23295V9ZM25.3711 9.11932C27.2972 9.11932 28.4052 7.48722 28.4052 4.63636C28.4052 1.80682 27.2802 0.153409 25.3711 0.153409C23.462 0.153409 22.337 1.80682 22.337 4.63636C22.337 7.48722 23.445 9.11932 25.3711 9.11932ZM25.3711 8.18182C24.1012 8.18182 23.3597 6.90767 23.3597 4.63636C23.3597 2.36932 24.1097 1.07386 25.3711 1.07386C26.6325 1.07386 27.3825 2.36932 27.3825 4.63636C27.3825 6.90767 26.641 8.18182 25.3711 8.18182ZM30.0245 9H35.5302V8.0625H31.4734V7.99432L33.4336 5.89773C34.9336 4.29119 35.3768 3.54119 35.3768 2.57386C35.3768 1.22727 34.2859 0.153409 32.7518 0.153409C31.2219 0.153409 30.0586 1.19318 30.0586 2.72727H31.0643C31.0643 1.73438 31.7077 1.07386 32.7177 1.07386C33.6637 1.07386 34.3881 1.65341 34.3881 2.57386C34.3881 3.37926 33.9151 3.97585 32.9052 5.07955L30.0245 8.23295V9ZM40.3583 0.272727H39.3015L37.1197 1.72159V2.79545L39.2504 1.38068H39.3015V9H40.3583V0.272727ZM46.3967 9H47.4535V5.8125H49.3626C51.3952 5.8125 52.3114 4.5767 52.3114 3.03409C52.3114 1.49148 51.3952 0.272727 49.3455 0.272727H46.3967V9ZM47.4535 4.875V1.21023H49.3114C50.7305 1.21023 51.2717 1.9858 51.2717 3.03409C51.2717 4.08239 50.7305 4.875 49.3285 4.875H47.4535ZM53.8775 9H54.8832V4.85795C54.8832 3.97159 55.582 3.32386 56.5366 3.32386C56.805 3.32386 57.082 3.375 57.1502 3.39205V2.36932C57.0352 2.3608 56.771 2.35227 56.6218 2.35227C55.8377 2.35227 55.1559 2.79545 54.9173 3.44318H54.8491V2.45455H53.8775V9ZM58.3423 9H59.348V2.45455H58.3423V9ZM58.8537 1.36364C59.2457 1.36364 59.5696 1.05682 59.5696 0.681818C59.5696 0.306818 59.2457 0 58.8537 0C58.4616 0 58.1378 0.306818 58.1378 0.681818C58.1378 1.05682 58.4616 1.36364 58.8537 1.36364ZM66.5423 2.45455H65.4513L63.6445 7.67045H63.5763L61.7695 2.45455H60.6786L63.0991 9H64.1218L66.5423 2.45455ZM67.8697 9H68.8754V2.45455H67.8697V9ZM68.381 1.36364C68.7731 1.36364 69.0969 1.05682 69.0969 0.681818C69.0969 0.306818 68.7731 0 68.381 0C67.989 0 67.6651 0.306818 67.6651 0.681818C67.6651 1.05682 67.989 1.36364 68.381 1.36364ZM72.6435 9.15341C73.7855 9.15341 74.3821 8.53977 74.5866 8.11364H74.6378V9H75.6435V4.6875C75.6435 2.60795 74.0582 2.36932 73.223 2.36932C72.2344 2.36932 71.1094 2.71023 70.598 3.90341L71.5526 4.24432C71.7741 3.76705 72.2983 3.25568 73.2571 3.25568C74.1818 3.25568 74.6378 3.74574 74.6378 4.58523V4.61932C74.6378 5.10511 74.1435 5.0625 72.9503 5.21591C71.7358 5.37358 70.4105 5.64205 70.4105 7.14205C70.4105 8.42045 71.3991 9.15341 72.6435 9.15341ZM72.7969 8.25C71.9957 8.25 71.4162 7.89205 71.4162 7.19318C71.4162 6.42614 72.1151 6.1875 72.8991 6.08523C73.3253 6.03409 74.4673 5.91477 74.6378 5.71023V6.63068C74.6378 7.44886 73.9901 8.25 72.7969 8.25Z" fill="#64626A"/>
</svg>
