<svg width="396" height="37" viewBox="0 0 396 37" fill="none" xmlns="http://www.w3.org/2000/svg">
<g clip-path="url(#clip0)">
<path d="M8.406 18.358C9.684 17.926 10.44 17.116 10.44 15.712C10.44 13.984 9.324 12.922 7.344 12.652C6.732 12.58 6.336 12.58 5.724 12.58H1.71V25H5.94C6.57 25 6.984 25 7.596 24.91C9.234 24.676 10.89 23.596 10.89 21.328C10.89 19.672 10.026 18.754 8.406 18.358ZM3.69 14.146H5.724C6.012 14.146 6.372 14.164 6.66 14.2C7.65 14.308 8.352 14.83 8.352 15.928C8.352 16.936 7.884 17.566 6.786 17.746C6.462 17.8 6.156 17.818 5.85 17.818H3.69V14.146ZM6.984 23.398C6.75 23.416 6.426 23.416 6.138 23.416H3.69V19.348H6.03C6.318 19.348 6.606 19.348 6.966 19.402C8.028 19.528 8.802 20.068 8.802 21.418C8.802 22.624 8.01 23.308 6.984 23.398ZM13.9632 12.112C13.2972 12.112 12.8112 12.598 12.8112 13.246C12.8112 13.912 13.2972 14.398 13.9632 14.398C14.6293 14.398 15.1332 13.912 15.1332 13.246C15.1332 12.598 14.6293 12.112 13.9632 12.112ZM14.9532 25V15.442H12.9732V25H14.9532ZM19.5988 11.77H17.6188V22.138C17.6188 22.714 17.6188 23.146 17.6368 23.506C17.7088 24.73 18.4108 25.108 19.4548 25.108C19.9048 25.108 20.3548 25.072 20.7508 25.018V23.632C19.9048 23.704 19.6528 23.524 19.6168 22.984C19.5988 22.696 19.5988 22.408 19.5988 22.084V11.77ZM24.5098 11.77H22.5298V22.138C22.5298 22.714 22.5298 23.146 22.5478 23.506C22.6198 24.73 23.3218 25.108 24.3658 25.108C24.8158 25.108 25.2658 25.072 25.6618 25.018V23.632C24.8158 23.704 24.5638 23.524 24.5278 22.984C24.5098 22.696 24.5098 22.408 24.5098 22.084V11.77ZM44.7237 12.58H41.6277L38.3517 23.236L35.0757 12.58H31.8897V25H33.8697V18.898C33.8697 17.476 33.8697 15.802 33.8337 14.47C34.1757 15.784 34.6977 17.476 35.1477 18.862L37.1637 25H39.4497L41.4477 18.88C41.9157 17.476 42.4377 15.766 42.7977 14.452C42.7617 15.766 42.7617 17.476 42.7617 18.898V25H44.7237V12.58ZM51.5816 15.19C48.3596 15.19 46.7396 17.422 46.7396 20.212C46.7396 23.002 48.3596 25.252 51.5816 25.252C54.7856 25.252 56.4236 23.002 56.4236 20.212C56.4236 17.422 54.7856 15.19 51.5816 15.19ZM51.5816 23.812C49.8356 23.812 48.8276 22.372 48.8276 20.212C48.8276 18.052 49.8356 16.63 51.5816 16.63C53.3096 16.63 54.3176 18.052 54.3176 20.212C54.3176 22.372 53.3096 23.812 51.5816 23.812ZM66.8067 17.926C66.6267 16.252 65.4567 15.19 63.4047 15.19C62.4507 15.19 61.7487 15.352 60.9927 15.928L60.3447 17.026V15.442H58.3647V25H60.3447V20.716C60.3447 17.728 61.4607 16.648 62.8287 16.648C64.1787 16.648 64.7547 17.404 64.8447 18.484C64.8807 18.97 64.8807 19.384 64.8807 19.834V25H66.8607V19.618C66.8607 18.844 66.8427 18.412 66.8067 17.926ZM71.8387 16.9H73.7107V15.514H71.8387V13.228H69.8767V15.514H68.5267V16.9H69.8767V22.084C69.8767 22.624 69.8767 23.038 69.8947 23.362C69.9847 24.622 70.6327 25.18 72.1267 25.18C72.6127 25.18 73.0807 25.144 73.5847 25.072V23.704C72.2887 23.83 71.9287 23.632 71.8567 22.696C71.8387 22.444 71.8387 22.228 71.8387 21.904V16.9ZM84.152 17.926C83.972 16.252 82.802 15.19 80.75 15.19C79.796 15.19 79.094 15.352 78.338 15.928L77.69 17.026V11.68H75.71V25H77.69V20.716C77.69 17.728 78.806 16.684 80.174 16.648C81.524 16.63 82.1 17.404 82.19 18.484C82.226 18.97 82.226 19.384 82.226 19.834V25H84.206V19.618C84.206 18.844 84.188 18.412 84.152 17.926ZM88.734 11.77H86.754V22.138C86.754 22.714 86.754 23.146 86.772 23.506C86.844 24.73 87.546 25.108 88.59 25.108C89.04 25.108 89.49 25.072 89.886 25.018V23.632C89.04 23.704 88.788 23.524 88.752 22.984C88.734 22.696 88.734 22.408 88.734 22.084V11.77ZM100.107 15.442H97.9649L95.3549 23.524L92.7269 15.442H90.5129L94.3649 25.45L94.2209 25.792C93.7889 26.908 93.1769 27.286 92.2769 27.286C92.0789 27.286 91.8809 27.286 91.6469 27.268V28.726C91.9349 28.78 92.1869 28.78 92.5829 28.78C94.3109 28.78 95.3369 27.88 96.2189 25.612L100.107 15.442Z" fill="#64626A"/>
<rect x="117" width="66" height="36" rx="18" stroke="#D1D0D6"/>
<rect x="123" y="6" width="24" height="24" rx="12" fill="#1E5579"/>
<path d="M207.406 18.358C208.684 17.926 209.44 17.116 209.44 15.712C209.44 13.984 208.324 12.922 206.344 12.652C205.732 12.58 205.336 12.58 204.724 12.58H200.71V25H204.94C205.57 25 205.984 25 206.596 24.91C208.234 24.676 209.89 23.596 209.89 21.328C209.89 19.672 209.026 18.754 207.406 18.358ZM202.69 14.146H204.724C205.012 14.146 205.372 14.164 205.66 14.2C206.65 14.308 207.352 14.83 207.352 15.928C207.352 16.936 206.884 17.566 205.786 17.746C205.462 17.8 205.156 17.818 204.85 17.818H202.69V14.146ZM205.984 23.398C205.75 23.416 205.426 23.416 205.138 23.416H202.69V19.348H205.03C205.318 19.348 205.606 19.348 205.966 19.402C207.028 19.528 207.802 20.068 207.802 21.418C207.802 22.624 207.01 23.308 205.984 23.398ZM212.963 12.112C212.297 12.112 211.811 12.598 211.811 13.246C211.811 13.912 212.297 14.398 212.963 14.398C213.629 14.398 214.133 13.912 214.133 13.246C214.133 12.598 213.629 12.112 212.963 12.112ZM213.953 25V15.442H211.973V25H213.953ZM218.599 11.77H216.619V22.138C216.619 22.714 216.619 23.146 216.637 23.506C216.709 24.73 217.411 25.108 218.455 25.108C218.905 25.108 219.355 25.072 219.751 25.018V23.632C218.905 23.704 218.653 23.524 218.617 22.984C218.599 22.696 218.599 22.408 218.599 22.084V11.77ZM223.51 11.77H221.53V22.138C221.53 22.714 221.53 23.146 221.548 23.506C221.62 24.73 222.322 25.108 223.366 25.108C223.816 25.108 224.266 25.072 224.662 25.018V23.632C223.816 23.704 223.564 23.524 223.528 22.984C223.51 22.696 223.51 22.408 223.51 22.084V11.77ZM237.46 20.896L238.81 25H240.952L236.614 12.58H234.058L229.594 25H231.7L233.05 20.896H237.46ZM233.572 19.33L235.3 14.218L236.938 19.33H233.572ZM250.876 17.926C250.696 16.252 249.526 15.19 247.474 15.19C246.52 15.19 245.818 15.352 245.062 15.928L244.414 17.026V15.442H242.434V25H244.414V20.716C244.414 17.728 245.53 16.648 246.898 16.648C248.248 16.648 248.824 17.404 248.914 18.484C248.95 18.97 248.95 19.384 248.95 19.834V25H250.93V19.618C250.93 18.844 250.912 18.412 250.876 17.926ZM261.992 17.926C261.812 16.252 260.642 15.19 258.59 15.19C257.636 15.19 256.934 15.352 256.178 15.928L255.53 17.026V15.442H253.55V25H255.53V20.716C255.53 17.728 256.646 16.648 258.014 16.648C259.364 16.648 259.94 17.404 260.03 18.484C260.066 18.97 260.066 19.384 260.066 19.834V25H262.046V19.618C262.046 18.844 262.028 18.412 261.992 17.926ZM273 15.442H271.038V19.942C271.038 22.714 269.994 23.776 268.608 23.776C267.384 23.776 266.7 23.092 266.556 22.048C266.502 21.562 266.484 21.04 266.484 20.734V15.442H264.522V21.13C264.522 21.904 264.54 22.336 264.612 22.822C264.828 24.136 265.98 25.252 267.96 25.252C268.914 25.252 269.616 25.09 270.372 24.55L271.038 23.362V25H273V15.442ZM281.238 25H283.2C283.056 23.938 283.02 23.29 283.02 22.57V19.204C283.02 18.754 283.002 18.25 282.966 17.854C282.804 16.234 281.832 15.19 279.366 15.19C277.188 15.19 275.622 16.378 275.496 18.466H277.476C277.584 17.278 278.178 16.63 279.33 16.63C280.464 16.63 280.95 17.17 281.004 17.944C281.04 18.304 281.04 18.628 281.04 18.988V19.222H280.428C276.81 19.222 275.118 20.374 275.118 22.498C275.118 24.28 276.504 25.252 278.196 25.252C279.096 25.252 279.924 25.09 280.572 24.64L281.058 23.614L281.238 25ZM278.916 23.812C277.872 23.812 277.206 23.344 277.206 22.336C277.206 20.878 278.718 20.356 281.04 20.536V21.418C281.04 22.966 280.158 23.812 278.916 23.812ZM287.646 11.77H285.666V22.138C285.666 22.714 285.666 23.146 285.684 23.506C285.756 24.73 286.458 25.108 287.502 25.108C287.952 25.108 288.402 25.072 288.798 25.018V23.632C287.952 23.704 287.7 23.524 287.664 22.984C287.646 22.696 287.646 22.408 287.646 22.084V11.77ZM292.557 11.77H290.577V22.138C290.577 22.714 290.577 23.146 290.595 23.506C290.667 24.73 291.369 25.108 292.413 25.108C292.863 25.108 293.313 25.072 293.709 25.018V23.632C292.863 23.704 292.611 23.524 292.575 22.984C292.557 22.696 292.557 22.408 292.557 22.084V11.77ZM303.93 15.442H301.788L299.178 23.524L296.55 15.442H294.336L298.188 25.45L298.044 25.792C297.612 26.908 297 27.286 296.1 27.286C295.902 27.286 295.704 27.286 295.47 27.268V28.726C295.758 28.78 296.01 28.78 296.406 28.78C298.134 28.78 299.16 27.88 300.042 25.612L303.93 15.442Z" fill="#64626A"/>
<g clip-path="url(#clip1)">
<path d="M318.724 12.328C316.348 12.328 314.278 13.678 314.278 15.964C314.278 18.25 315.88 19.132 318.418 19.744C320.254 20.176 320.902 20.788 320.902 21.832C320.902 22.786 320.002 23.398 318.868 23.398C317.608 23.398 316.564 22.696 316.294 21.328H313.756C313.99 23.938 315.934 25.252 318.904 25.252C321.352 25.252 323.494 23.92 323.494 21.58C323.494 19.582 322.27 18.322 319.534 17.692C317.554 17.224 316.888 16.702 316.888 15.658C316.888 14.65 317.644 14.182 318.634 14.182C319.93 14.182 320.632 14.974 320.776 16.234H323.314C323.044 14.02 321.694 12.328 318.724 12.328ZM330.847 25H333.277C333.133 23.938 333.097 23.29 333.097 22.57V19.474C333.097 18.952 333.079 18.448 333.043 17.998C332.899 16.342 331.891 15.172 329.209 15.172C326.923 15.172 325.177 16.396 325.105 18.556L327.517 18.538C327.589 17.494 328.129 16.918 329.119 16.918C330.091 16.918 330.523 17.404 330.595 18.07C330.631 18.394 330.631 18.682 330.631 18.97V19.168H330.019C326.545 19.168 324.745 20.356 324.745 22.462C324.745 24.28 326.167 25.252 327.823 25.252C328.723 25.252 329.533 25.072 330.199 24.622L330.667 23.596L330.847 25ZM328.777 23.506C327.895 23.506 327.319 23.11 327.319 22.264C327.319 21.004 328.651 20.554 330.631 20.698V21.472C330.631 22.804 329.785 23.506 328.777 23.506ZM344.665 15.424H341.983L339.625 23.128L337.213 15.424H334.459L338.185 25H340.957L344.665 15.424ZM354.366 20.014C354.366 17.404 352.818 15.172 349.884 15.172C346.95 15.172 345.024 17.314 345.024 20.248C345.024 23.614 347.058 25.252 349.686 25.252C351.936 25.252 353.736 24.118 354.222 21.886H351.738C351.576 22.912 350.802 23.506 349.74 23.506C348.588 23.506 347.688 22.876 347.526 20.86H354.33C354.366 20.536 354.366 20.248 354.366 20.014ZM349.776 16.918C350.964 16.918 351.648 17.728 351.81 19.24H347.598C347.814 17.656 348.624 16.918 349.776 16.918ZM367.158 12.58H365.934C365.25 12.58 364.602 12.76 363.936 13.138L361.056 14.848V17.188L364.674 15.19V25H367.158V12.58ZM376.538 16.666C375.818 16.666 375.17 16.81 374.594 17.152L373.982 17.998L374.45 14.524H380.156V12.58H372.416L371.534 19.924H373.838C374.27 18.934 374.9 18.52 375.872 18.52C377.222 18.52 378.014 19.51 378.014 20.968C378.014 22.426 377.204 23.398 375.818 23.398C374.63 23.398 374 22.696 373.82 21.598L373.802 21.418H371.318L371.336 21.598C371.588 24.1 373.172 25.252 375.944 25.252C378.374 25.252 380.66 23.722 380.66 20.878C380.66 18.322 379.148 16.666 376.538 16.666ZM385.162 12.364C383.452 12.364 382.39 13.462 382.39 15.316C382.39 17.17 383.452 18.286 385.162 18.286C386.89 18.286 387.952 17.17 387.952 15.316C387.952 13.462 386.89 12.364 385.162 12.364ZM385.594 25L393.658 12.58H391.732L383.668 25H385.594ZM385.162 13.678C385.828 13.678 386.206 14.254 386.206 15.316C386.206 16.378 385.828 16.972 385.162 16.972C384.496 16.972 384.136 16.378 384.136 15.316C384.136 14.254 384.496 13.678 385.162 13.678ZM392.056 19.33C390.346 19.33 389.266 20.428 389.266 22.282C389.266 24.136 390.346 25.252 392.056 25.252C393.784 25.252 394.846 24.136 394.846 22.282C394.846 20.428 393.784 19.33 392.056 19.33ZM392.056 20.644C392.722 20.644 393.082 21.22 393.082 22.282C393.082 23.344 392.722 23.938 392.056 23.938C391.39 23.938 391.03 23.344 391.03 22.282C391.03 21.22 391.39 20.644 392.056 20.644Z" fill="#1E5579"/>
<path d="M313 37C313 37 350.864 31.482 396 33.5761" stroke="#1E5579" stroke-width="2" stroke-linecap="round" stroke-linejoin="round"/>
</g>
</g>
<defs>
<clipPath id="clip0">
<rect width="396" height="37" fill="white"/>
</clipPath>
<clipPath id="clip1">
<rect width="83" height="34" fill="white" transform="translate(313 3)"/>
</clipPath>
</defs>
</svg>
